<svg id="レイヤー_1" data-name="レイヤー 1" xmlns="http://www.w3.org/2000/svg" viewBox="0 0 143.62 50.18"><defs><style>.cls-1{fill:#368953;}.cls-2{fill:#d2931e;}</style></defs><title>logo</title><g id="lAB4JU.tif"><path class="cls-1" d="M385.28,166.41c0.21,0.52.42,1,.61,1.55,0.63,1.72.19,2.32-1.67,2.26a4.68,4.68,0,0,1-3.6-1.81c-2-2.51-2.65-5.39-2.24-9.07,1.75,2,3.89,2.57,5.78,3.62,3.26,1.81,4.32,4.93,4.86,8.34a5.25,5.25,0,0,0,.57,2.55c0.7-3,2.43-5.44,2.4-8.56,0-2.86,2-4.47,5-4.71,2.41-.2,4.85-0.25,7-2.53-0.08,3.31-.11,6.11-1.55,8.65a7.22,7.22,0,0,1-7.64,3.22,0.89,0.89,0,0,1-.74-1.37,12.42,12.42,0,0,1,2.53-4.5,4.37,4.37,0,0,0-2.1,2.06,30.78,30.78,0,0,0-3.72,10.73c-0.22,1.23.2,1.68,1.38,2,5.68,1.6,9.47,5.25,10.8,11a14.34,14.34,0,0,1-4.5,14.47,15.27,15.27,0,0,1-17,2.26,14.88,14.88,0,0,1,3.85-28c1.69-.27,2.27-0.95,2.3-2.51a29.49,29.49,0,0,0,0-5A7.43,7.43,0,0,0,385.28,166.41Zm13.62,34.74a10.39,10.39,0,0,0,2.48-5.28c0.24-1.22.88-2.62-.65-3.59-0.22-.14-0.41-0.54.09-0.6,1.09-.14.55-0.83,0.41-1.26-0.37-1.08-.83-2.14-1.27-3.19-1.85-4.41-7.94-7.88-12.65-6.89,2.36,0,3.61,1.64,5.46,2,1.16,0.25,1.28,1.79.42,2.84a1.47,1.47,0,0,0-.08,1.63,0.91,0.91,0,0,0,.83.76c0.82-.15,0-0.6.1-0.89a0.4,0.4,0,0,1,.69-0.16c0.56,0.42,1,1.12.45,1.6-1.17,1-.88,2.44-1.26,3.67-0.1.33-.48,0.83,0.12,1a0.74,0.74,0,0,0,1-.66c0-1.31,1.16-1.25,1.87-1.7a2.15,2.15,0,0,0,.92-0.34c0.54-.66-0.81-1.84.3-2,0.72-.11,0,1.65,1.13,2,0.64,0.19.53,0.77,0.24,1.3a2.14,2.14,0,0,1-2.3,1.19,1.74,1.74,0,0,0-1.89.51,15.5,15.5,0,0,0-2.25,3.87,2.17,2.17,0,0,0,.55,2.38,1.94,1.94,0,0,0,2.4.18C398,198.73,398.36,198.91,398.89,201.15Zm-21.24-5.23a1.29,1.29,0,0,0-.38-1.56c-0.51-.57-1.15-1.18-0.35-1.9a1.48,1.48,0,0,1,2.29.15c0.27,0.3.57,0.56,0.82,0.18,1.05-1.62,3.09-1.55,4.46-2.66,0.66-.53,1-0.88.63-1.64s-0.92-1.21-1.78-.58c-0.29.21-.56,0.47-0.9,0.14a1.08,1.08,0,0,1-.18-1.12c0.25-1.13,1.45-.9,2.14-1.43-1.05-1.11-1.06-1.11-.62-2.85a0.75,0.75,0,0,0-.12-0.94,0.69,0.69,0,0,0-.79.19c-2.14,1.66-4.38,3.23-5.9,5.54A7.06,7.06,0,0,0,377.65,195.92Zm0.93,1.68c-0.84,2.18.16,3.65,1.39,5.25,2.18,2.83,3.7,3.34,6.89,1.76a1.19,1.19,0,0,0,1-1.08,1.16,1.16,0,0,0-1-1.09c-1.79-.18-2.73-1.53-3.9-2.6A8.68,8.68,0,0,0,378.58,197.61Zm8.78-9.22c0.95-1,1.84-1.66,2.08-2.81a1,1,0,0,0-.88-1.38c-0.74-.06-1.61.27-1.36,1.09S387.16,187.1,387.36,188.39Z" transform="translate(-373.2 -158.05)"/><path class="cls-1" d="M448.83,188.66c1.06-2.56,2.12-4.85,2.94-7.23,0.68-2,2.18-1,3.32-1.13s1,1,1.09,1.72c0.38,3.73.76,7.45,1.46,11.13,0.23,1.19-.13,1.45-1.29,1.41-3.39-.1-3.37,0-3.63-3.49-0.12-1.59-.35-3.17-0.6-5.28a63.41,63.41,0,0,0-3.22,7.39c-0.29.78-.5,1.44-1.61,1.43s-1.2-.63-1.49-1.33c-0.94-2.28-1.91-4.54-3.05-7.27a37.62,37.62,0,0,0-1,7.22c-0.06,1.07-.48,1.33-1.49,1.32s-1.12-.4-0.93-1.26a86.73,86.73,0,0,0,2-12.1,0.88,0.88,0,0,1,1.07-1c2.7-.12,2.68-0.14,3.71,2.35A46.2,46.2,0,0,0,448.83,188.66Z" transform="translate(-373.2 -158.05)"/><path class="cls-1" d="M475.67,167.15c0,2,0,4,0,6,0,0.86-.16,1.34-1.15,1.13a5.76,5.76,0,0,0-1-.09c-2.64-.09-2.64-0.09-2.56-2.87,0-.35,0-0.69,0-1,0.12-3.1.3-2.63-2.76-2.75-1.3-.05-1.77.37-1.66,1.67s0.05,2.76.13,4.14c0.06,1-.52,1.2-1.15.86-1.17-.63-3.49,1.34-3.56-1-0.13-4.07.15-8.17-.12-12.26-0.05-.84.22-1.19,1.08-1a7.66,7.66,0,0,0,1.2.11c2.61,0.06,2.61.05,2.5,2.76,0,0.06,0,.12,0,0.17,0,0.84-.47,2,0.26,2.44,1,0.61,2.35.24,3.55,0.19,0.63,0,.59-0.62.58-1.07,0-1.21,0-2.42-.17-3.62-0.09-.9.23-1.14,1.07-1a8.7,8.7,0,0,0,1.55.11c2.28,0,2.26,0,2.2,2.22,0,1.61,0,3.22,0,4.84h0Z" transform="translate(-373.2 -158.05)"/><path class="cls-1" d="M439.29,168.52c0,1.82,0,3.2,0,4.57,0,0.91-.12,1.5-1.21,1.2s-2.73.65-3.4-.27c-0.53-.74,0-2.22,0-3.37,0-3.11,0-6.23-.14-9.34,0-1,.12-1.53,1.3-1.3a11.16,11.16,0,0,0,3.45-.06,12.11,12.11,0,0,1,4.81.31,3.32,3.32,0,0,1,2.69,3c0.14,1.63-.31,3-2,3.64-1,.36-1.06.75-0.49,1.6,1.2,1.82,2.3,3.71,3.55,5.76a40.92,40.92,0,0,0-4.72.09c-0.65.1-.81-0.55-1-1A32.27,32.27,0,0,0,439.29,168.52ZM439.14,164c0.59,0.74-.82,2.29,1,2.4,1.65,0.11,1.94-1.23,2-2.46s-0.38-2.38-1.91-2.32C438.35,161.68,439.71,163.23,439.14,164Z" transform="translate(-373.2 -158.05)"/><path class="cls-1" d="M430.1,194.82c-5.58,0-8.76-3.09-8.58-7.92a6.75,6.75,0,0,1,4.71-6.37,10.51,10.51,0,0,1,5.95-.28c3.85,0.9,5.86,3.56,5.73,7.66-0.11,3.59-2.45,6.14-6.19,6.72C431,194.72,430.35,194.79,430.1,194.82Zm-3.75-7.44c0.15,1.43,0,2.82.71,4.1a2.86,2.86,0,0,0,2.77,1.67,2.52,2.52,0,0,0,2.53-1.72,11.09,11.09,0,0,0,0-7.91,2.63,2.63,0,0,0-2.53-1.77,2.85,2.85,0,0,0-2.78,1.66A9.74,9.74,0,0,0,426.35,187.37Z" transform="translate(-373.2 -158.05)"/><path class="cls-1" d="M491.07,186.39a34.42,34.42,0,0,0,.16,6.57c0.06,0.93.1,1.62-1.27,1.63s-1.29-.78-1.19-1.66a97.69,97.69,0,0,0,.3-10.55c0-.7-0.61-1.89.49-2s2.43-.56,3.47.76c1.75,2.22,3.7,4.28,5.58,6.38a1.58,1.58,0,0,0,.93.83c0-2.12,0-4.22,0-6.33,0-.92-0.24-1.81,1.3-1.76S502,181.12,502,182c-0.35,3.51-.29,7-0.33,10.56,0,0.67.48,1.79-.47,1.92s-2.35.63-3.35-.61c-1.65-2.08-3.42-4.06-5.17-6.06A3.27,3.27,0,0,0,491.07,186.39Z" transform="translate(-373.2 -158.05)"/><path class="cls-1" d="M460.05,187.33c0-1.9.06-3.8,0-5.7,0-1,.14-1.45,1.29-1.4,2.3,0.09,4.61-.12,6.9,0,2.67,0.19,4,1.58,4,3.81,0,2.46-1.34,3.91-4,4.29l-0.51.06c-3.1.32-3.1,0.32-2.93,3.56a11.42,11.42,0,0,0,.08,1.21c0.17,1-.2,1.4-1.3,1.39-3.54,0-3.53,0-3.4-3.45,0-1.27,0-2.53,0-3.8h-0.13Zm4.62-3c0.43,0.82-.64,2.35,1,2.46s1.89-1.21,1.92-2.52c0-1.61-.76-2.69-1.95-2.48C464.06,182.08,465.08,183.48,464.67,184.32Z" transform="translate(-373.2 -158.05)"/><path class="cls-1" d="M429.77,174.27c-1.38.51-2.45-.05-2.72-2a0.89,0.89,0,0,0-1.06-.67c-0.86,0-1.73,0-2.59,0a1.42,1.42,0,0,0-1.78,1.37c-0.15,1.3-.86,1.49-2,1.32-0.71-.11-0.94-0.24-0.63-0.93,1.87-4.15,3.61-8.36,5.17-12.64,0.5-1.36,1.62-.33,2.39-0.65s0.9,0.2,1.09.75c1.45,4.19,3,8.33,4.83,12.4,0.45,1,.06,1.22-0.89,1.08A14.62,14.62,0,0,0,429.77,174.27Zm-5.16-8.72a2.23,2.23,0,0,0-.86,1.37c-1.16,2.92-1.15,2.93,2.26,2.5Z" transform="translate(-373.2 -158.05)"/><path class="cls-1" d="M487.1,194.57c-1.56,0-2.93,0-4.29,0-0.91,0-1-.65-1.14-1.24a1.7,1.7,0,0,0-2.2-1.54,7.49,7.49,0,0,1-1.73,0,1.45,1.45,0,0,0-1.83,1.31,2,2,0,0,1-.54,1.22,2.11,2.11,0,0,1-2.13,0c-0.51-.29.07-0.92,0.26-1.36,1.64-3.74,3.29-7.49,4.6-11.36,0.42-1.24,1.16-1.4,2.31-1.45s1.45,0.6,1.74,1.46c1.28,3.82,2.81,7.55,4.35,11.27C486.7,193.41,486.85,193.89,487.1,194.57Zm-8.34-9.12c-0.5,1.26-.78,2.13-1.2,2.93-0.72,1.39-.12,1.54,1.15,1.58,1.56,0.05,1.77-.44,1.13-1.73C479.47,187.47,479.22,186.65,478.76,185.45Z" transform="translate(-373.2 -158.05)"/><path class="cls-1" d="M407.76,167c0-2,0-3.92,0-5.88,0-.82,0-1.34,1.07-1.24a46.59,46.59,0,0,0,7.44,0c0.72,0,1.2,0,1.23,1s-0.44,1.16-1.26,1.1-1.39,0-2.08-.05c-1.31-.15-1.86.27-1.81,1.7,0.08,2.29,0,2.3,2.33,2.18,0.58,0,1.15,0,1.73-.09,0.87-.08.87,0.44,0.88,1.08s-0.06,1.13-.91,1-1.84-.16-2.76-0.25a1,1,0,0,0-1.26,1.18c-0.24,3.54-.27,3.54,3.25,3.51a8.18,8.18,0,0,0,.87,0c0.92-.11,1,0.44,1,1.17s-0.33,1-1.05.93a46.2,46.2,0,0,0-7.44,0c-0.91.07-1.21-.19-1.18-1.13,0.07-2.07,0-4.15,0-6.23h-0.06Z" transform="translate(-373.2 -158.05)"/><path class="cls-1" d="M411.79,187.49c0,0.51.06,1.09,0.15,1.66,0.52,3.5,3.35,4.79,6.36,3,0.47-.28,1.11-1.26,1.52-0.51A1.82,1.82,0,0,1,419,194c-3,1.23-6.11,1.34-9-.46-2.7-1.71-3.43-4.38-3-7.39a7.13,7.13,0,0,1,5.8-5.9,11.6,11.6,0,0,1,6.13.38c0.5,0.15,1.06.27,0.92,1a5.27,5.27,0,0,1-.65,2.29c-0.17.23-.55,0-0.71-0.26a3.15,3.15,0,0,0-4.12-1.53c-1.9.67-2.42,2.31-2.6,4.12C411.83,186.62,411.82,187,411.79,187.49Z" transform="translate(-373.2 -158.05)"/><path class="cls-1" d="M511.77,186a33.27,33.27,0,0,0,1.69-3.88c0.5-1.74,1.47-2.32,3.35-1.68-0.67,1.22-1.29,2.48-2,3.66-1.63,2.61-2.67,5.35-2.05,8.48,0.32,1.64-.35,2-1.92,2-2.7-.14-2.94-0.07-2.62-2.68,0.46-3.69-1.69-6.32-3.18-9.25-0.36-.71-1.26-1.46-0.93-2.1s1.46-.11,2.22-0.26c2-.39,3.22.28,3.79,2.33A21.48,21.48,0,0,0,511.77,186Z" transform="translate(-373.2 -158.05)"/><path class="cls-1" d="M454.35,159.92c1.61,0,3.22,0,4.83,0,0.78,0,1,.19,1,1-0.08.6,0.16,1.21-.91,1.22-2.79,0-2.82.09-2.79,2.86s0.07,5.41.18,8.12c0,1.07-.28,1.49-1.37,1.25a3.13,3.13,0,0,0-1.37-.07c-1.87.47-2.15-.33-2-2,0.19-2.69,0-5.42.15-8.11,0.1-1.81-.55-2.39-2.28-2.11-0.64.11-1.56,0.48-1.52-.88,0-.85.17-1.25,1.14-1.21,1.67,0.08,3.34,0,5,0h0Z" transform="translate(-373.2 -158.05)"/><path class="cls-2" d="M411.83,198.32c0.81,0.07,2-.15,2.63,1.05a0.84,0.84,0,0,1,0,1.11,0.75,0.75,0,0,1-1.19-.17c-0.58-1-1.51-.9-2.43-0.8a1,1,0,0,0-1.09,1.1,1,1,0,0,0,1.06,1.11c0.86,0.1,1.72.17,2.57,0.29,1.24,0.18,1.53,1.07,1.5,2.15s-0.27,2.05-1.61,2.28a9.75,9.75,0,0,1-3.6,0,1.53,1.53,0,0,1-1.35-1.36,0.74,0.74,0,0,1,.26-0.92,0.72,0.72,0,0,1,1.05.27c0.58,1.51,1.82.83,2.82,0.88a0.9,0.9,0,0,0,.92-1,1,1,0,0,0-.81-1.13c-0.68-.1-1.37-0.19-2.06-0.23-1.4-.08-2.29-0.61-2.27-2.19a2.08,2.08,0,0,1,2.32-2.36h1.3Z" transform="translate(-373.2 -158.05)"/><path class="cls-2" d="M453.21,198.32a3.82,3.82,0,0,1,2.64.54,1.12,1.12,0,0,1,.34,1.53c-0.45.55-1,.31-1.37-0.3a1.72,1.72,0,0,0-1.84-.63c-0.78,0-1.57.15-1.56,1.19s0.73,1,1.45,1.1,1.15,0.06,1.72.12a2,2,0,0,1,2,2.45,2,2,0,0,1-2.12,2.19,10.48,10.48,0,0,1-3.09-.12,1.55,1.55,0,0,1-1.28-1c-0.14-.42-0.37-1,0.14-1.24a0.77,0.77,0,0,1,1.14.38c0.74,1.37,2,.76,3.07.68a1.11,1.11,0,0,0-.16-2.07,17.89,17.89,0,0,0-2.05-.24c-1.49-.06-2.39-0.63-2.35-2.29s0.95-2.23,2.43-2.27h0.86Z" transform="translate(-373.2 -158.05)"/><path class="cls-2" d="M494,202.41c0,1.1,0,2.19,0,3.29,0,0.4-.17,1.08-0.56.82-1-.68-1.83.13-2.73,0.06a1.82,1.82,0,0,1-1.94-1.79,13.83,13.83,0,0,1,0-1.9c0.11-1.64,1.06-2.47,2.67-2,1.19,0.33,1.37,0,1.35-1,0-.54-0.31-1.49.72-1.41,0.83,0.07.5,0.9,0.53,1.41,0.06,0.86,0,1.73,0,2.59h0Zm-1.39,1.19c0-.89,0-1.79-1.28-1.76s-1.19,1-1.18,1.83-0.14,1.83,1.17,1.86S492.57,204.49,492.64,203.6Z" transform="translate(-373.2 -158.05)"/><path class="cls-2" d="M507,204.23c0,0.52,0,1,0,1.55,0,0.34-.16.92-0.47,0.76-1.12-.56-2.2.21-3.29,0a1.56,1.56,0,0,1-1.36-1.71,1.47,1.47,0,0,1,1.31-1.57,9,9,0,0,1,1.37,0c0.37,0,.82.44,1.07-0.06a1.28,1.28,0,0,0-.07-1,1,1,0,0,0-1.21-.44,2,2,0,0,0-.78.33,1,1,0,0,1-1.26.15,0.46,0.46,0,0,1-.1-0.62,1.3,1.3,0,0,1,1.09-.72C506,200.2,507,201.11,507,204.23Zm-2.71-.09c-0.4.07-1,.09-0.91,0.82s0.68,0.64,1.18.63,1.11-.15,1-0.8S504.91,204.17,504.3,204.15Z" transform="translate(-373.2 -158.05)"/><path class="cls-2" d="M478.41,204.47c0,0.35,0,.87,0,1.39,0,0.3-.18.75-0.41,0.63-1.17-.6-2.32.35-3.47,0a1.62,1.62,0,0,1-1.29-1.79,1.54,1.54,0,0,1,1.43-1.49c0.39-.06.81,0,1.2,0s0.89,0.58,1.16-.15a1,1,0,0,0-.17-1,1.25,1.25,0,0,0-1.28-.3,1.8,1.8,0,0,0-.62.28c-0.45.3-1,.65-1.31,0s0.35-1.06.93-1.14C477.45,200.48,478.74,200.83,478.41,204.47Zm-2.49-.32c-0.53,0-1.13,0-1.19.71s0.44,0.74.93,0.74,1.26,0,1.27-.77C476.94,204.21,476.37,204.2,475.92,204.15Z" transform="translate(-373.2 -158.05)"/><path class="cls-2" d="M421.28,203.72c0,2.25-.65,2.89-2.72,2.87s-2.71-.73-2.66-3.09,0.6-2.76,2.8-2.73S421.32,201.44,421.28,203.72Zm-3.9,0c0.08,0.77-.22,1.8,1.14,1.85s1.32-1,1.32-1.89,0.08-1.8-1.23-1.8S417.43,202.78,417.39,203.67Z" transform="translate(-373.2 -158.05)"/><path class="cls-2" d="M463,203.74c0,2.23-.67,2.89-2.73,2.85s-2.68-.68-2.65-3.1c0-2.15.67-2.77,2.83-2.74S463,201.44,463,203.74Zm-4-.15c0,0.95,0,2,1.34,1.93s1.24-1,1.27-1.87-0.06-1.78-1.31-1.81S459,202.67,459,203.58Z" transform="translate(-373.2 -158.05)"/><path class="cls-2" d="M440.38,203.58c0,2.32-.55,3-2.54,3-2.17,0-2.78-.62-2.77-3s0.57-2.89,2.65-2.89S440.38,201.28,440.38,203.58Zm-1.43,0c-0.12-.61.25-1.65-1.12-1.72s-1.38.77-1.34,1.69-0.22,2,1.21,2S438.92,204.6,438.95,203.55Z" transform="translate(-373.2 -158.05)"/><path class="cls-2" d="M495.33,203.68c0-2.49,1.66-3.63,4-2.74a1.91,1.91,0,0,1,1.2,2.23c-0.1,1.11-1,.59-1.63.71-0.22,0-.46,0-0.69,0-0.48.07-1.08-.23-1.39,0.35a0.82,0.82,0,0,0,.19,1,1.75,1.75,0,0,0,1.62.3,0.54,0.54,0,0,0,.17,0c0.54-.25,1.24-1.24,1.59-0.17,0.27,0.82-.82,1.08-1.55,1.22C496.43,207,495.34,206.1,495.33,203.68Zm2.78-.54c0.31-.18,1,0.15,1-0.57s-0.59-.74-1.12-0.73-1.16,0-1.14.71S497.61,203,498.12,203.14Z" transform="translate(-373.2 -158.05)"/><path class="cls-2" d="M510.76,200.74c0.35,0,.64,0,0.93,0a1.59,1.59,0,0,1,1.45.77,0.43,0.43,0,0,1-.1.61c-0.59.39-.93-0.16-1.38-0.35A1.49,1.49,0,0,0,510,202a0.69,0.69,0,0,0-.18.61c0.27,0.71.94,0.52,1.48,0.56,1.07,0.09,2.14.13,2.14,1.63s-1.11,1.69-2.24,1.8a3.79,3.79,0,0,1-2.35-.38,0.8,0.8,0,0,1-.45-1.13,0.75,0.75,0,0,1,1.08,0,4.67,4.67,0,0,0,.38.35,1.73,1.73,0,0,0,1.8,0,0.59,0.59,0,0,0,.3-0.74c-0.26-.71-0.94-0.55-1.47-0.63-1.84-.28-2.47-0.89-2.1-2.15S509.89,200.87,510.76,200.74Z" transform="translate(-373.2 -158.05)"/><path class="cls-2" d="M464.16,203.82c0-2.65,1.95-3.89,4.19-2.81a1.06,1.06,0,0,1,.78,1.33c-0.39.78-.9,0.28-1.36-0.12-0.64-.56-1.51-0.72-2,0a2.59,2.59,0,0,0,.07,2.93,1.23,1.23,0,0,0,2.06-.15c0.38-.54.86-0.77,1.22-0.25a1,1,0,0,1-.53,1.43,3.88,3.88,0,0,1-3.5,0C464.06,205.73,464.21,204.62,464.16,203.82Z" transform="translate(-373.2 -158.05)"/><path class="cls-2" d="M433.3,198.26c0.32,0,.76-0.11.87,0.34s-0.37.48-.63,0.66c-0.8.54-1.11,1.1,0.12,1.47,0.6,0.18.87,0.77,0.32,0.87-1.53.28-1,1.36-1.18,2.24s0.62,2.55-.67,2.56c-1.07,0-.36-1.64-0.54-2.53s0.07-1.5-.49-2.27S432.18,198.28,433.3,198.26Z" transform="translate(-373.2 -158.05)"/><path class="cls-2" d="M441.69,203.51c0-.4,0-0.8,0-1.2,0.07-.89-0.11-2.07,1.48-1.26a3,3,0,0,0,1.1-.3,1.27,1.27,0,0,1,1.62.9,0.85,0.85,0,0,1-.12,1.1,0.61,0.61,0,0,1-.94-0.42,0.79,0.79,0,0,0-1.1-.51,1.07,1.07,0,0,0-.66,1.1c0,0.86,0,1.72,0,2.58,0,0.46,0,1-.64,1s-0.65-.53-0.68-1c0-.69,0-1.37,0-2.06h0Z" transform="translate(-373.2 -158.05)"/><path class="cls-2" d="M487.41,202.51c0,0.92,0,1.83,0,2.75,0,0.52.2,1.26-.67,1.32s-0.72-.71-0.73-1.22c0-1.94,0-3.89,0-5.83,0-.48-0.14-1.13.65-1.15s0.73,0.71.75,1.23c0,1,0,1.94,0,2.92h0Z" transform="translate(-373.2 -158.05)"/><path class="cls-2" d="M426.64,202.45c0,1,0,2.07,0,3.11,0,0.46,0,1-.69,1s-0.55-.5-0.56-0.89q0-3.19,0-6.38c0-.4,0-0.86.58-0.87s0.66,0.53.67,1C426.66,200.38,426.64,201.41,426.64,202.45Z" transform="translate(-373.2 -158.05)"/><path class="cls-2" d="M481.16,202.54c0,1,0,2.08,0,3.11,0,0.4,0,.86-0.57.86a0.6,0.6,0,0,1-.61-0.69q0-3.37,0-6.75a0.59,0.59,0,1,1,1.16,0c0,1.15,0,2.31,0,3.46h0Z" transform="translate(-373.2 -158.05)"/><path class="cls-2" d="M471.83,203.68c0,0.68,0,1.37,0,2.05,0,0.39,0,.84-0.59.83a0.61,0.61,0,0,1-.64-0.66c0-1.48,0-3,0-4.44a0.61,0.61,0,1,1,1.22,0c0,0.74,0,1.48,0,2.22h0Z" transform="translate(-373.2 -158.05)"/><path class="cls-2" d="M422.61,203.63c0-.69,0-1.38,0-2.07a0.6,0.6,0,0,1,.51-0.75,0.64,0.64,0,0,1,.7.76c0,1.43,0,2.87,0,4.3a0.6,0.6,0,0,1-.62.67,0.58,0.58,0,0,1-.58-0.68c0-.75,0-1.49,0-2.24h0Z" transform="translate(-373.2 -158.05)"/><path class="cls-2" d="M422.69,199.73a3.8,3.8,0,0,1,0-.47c0-.08,0-0.16.51-0.17s0.7,0.08.7,0.18a8.48,8.48,0,0,1,0,1c0,0.08-.18.15-0.62,0.15s-0.58-.07-0.58-0.16a5.08,5.08,0,0,1,0-.51h0Z" transform="translate(-373.2 -158.05)"/><path class="cls-2" d="M470.61,199.59a3.8,3.8,0,0,1,0-.47c0-.08,0-0.16.51-0.17s0.7,0.08.7,0.18a8.48,8.48,0,0,1,0,1c0,0.08-.18.15-0.62,0.15s-0.58-.07-0.58-0.16a5.08,5.08,0,0,1,0-.51h0Z" transform="translate(-373.2 -158.05)"/></g></svg>